<?xml version="1.0" standalone="no"?>
<!DOCTYPE svg PUBLIC "-//W3C//DTD SVG 20010904//EN"
 "http://www.w3.org/TR/2001/REC-SVG-20010904/DTD/svg10.dtd">
<svg version="1.0" xmlns="http://www.w3.org/2000/svg"
 width="512.000000pt" height="512.000000pt" viewBox="0 0 512.000000 512.000000"
 preserveAspectRatio="xMidYMid meet">

<g transform="translate(0.000000,512.000000) scale(0.100000,-0.100000)"
fill="#000000" stroke="none">
<path d="M650 5105 c-336 -68 -587 -329 -639 -665 -9 -56 -11 -454 -9 -1535 3
-1366 5 -1464 21 -1520 28 -94 101 -234 157 -302 128 -157 338 -271 530 -289
l68 -7 7 -61 c14 -137 73 -291 151 -397 49 -67 161 -170 232 -213 80 -48 197
-91 292 -106 55 -8 459 -10 1535 -8 1592 3 1470 -1 1627 58 177 66 372 261
438 438 59 156 55 41 55 1672 0 1686 7 1536 -80 1715 -117 242 -364 417 -626
441 l-65 7 -17 103 c-27 174 -91 306 -210 430 -120 127 -266 208 -434 240
-106 20 -2933 19 -3033 -1z m3050 -421 c82 -40 136 -87 177 -155 66 -111 63
-28 63 -1571 0 -984 -3 -1413 -11 -1450 -25 -121 -115 -234 -227 -286 l-57
-27 -1475 0 -1475 0 -57 27 c-68 31 -147 103 -183 163 -58 100 -56 33 -53
1596 l3 1434 32 67 c17 37 50 87 72 111 44 48 135 101 197 116 23 5 633 9
1484 8 l1445 -2 65 -31z m786 -788 c64 -29 144 -102 179 -161 58 -100 56 -33
53 -1596 l-3 -1435 -37 -76 c-45 -91 -103 -147 -196 -191 l-67 -32 -1465 0
-1465 0 -57 27 c-138 65 -218 169 -243 315 l-7 43 1259 2 1258 3 70 23 c272
92 458 279 542 547 l28 90 3 1239 3 1239 46 -7 c26 -3 70 -17 99 -30z"/>
</g>
</svg>
