<svg xmlns="http://www.w3.org/2000/svg" xmlns:xlink="http://www.w3.org/1999/xlink" version="1.1" width="256" height="256" viewBox="0 0 256 256" xml:space="preserve">

<defs>
</defs>
<g style="stroke: none; stroke-width: 0; stroke-dasharray: none; stroke-linecap: butt; stroke-linejoin: miter; stroke-miterlimit: 10; fill: none; fill-rule: nonzero; opacity: 1;" transform="translate(1.4065934065934016 1.4065934065934016) scale(2.81 2.81)" >
	<path d="M 58.526 29.113 c 0.05 0.082 0.1 0.163 0.148 0.246 C 58.626 29.276 58.576 29.194 58.526 29.113 z" style="stroke: none; stroke-width: 1; stroke-dasharray: none; stroke-linecap: butt; stroke-linejoin: miter; stroke-miterlimit: 10; fill: rgb(0,0,0); fill-rule: nonzero; opacity: 1;" transform=" matrix(1 0 0 1 0 0) " stroke-linecap="round" />
	<path d="M 34.389 51.272 c -0.758 -1.904 -1.696 -3.744 -2.8 -5.495 c -0.487 -0.773 -0.901 -1.595 -1.251 -2.451 c -0.755 -1.847 -1.18 -3.863 -1.18 -5.982 c 0 -8.749 7.092 -15.841 15.841 -15.841 c 5.221 0 9.848 2.528 12.734 6.424 l 0 0 l 16.834 -16.834 C 66.659 4.191 56.322 0 45 0 C 20.147 0 0 20.147 0 45 c 0 11.322 4.191 21.659 11.093 29.568 L 34.389 51.272 z" style="stroke: none; stroke-width: 1; stroke-dasharray: none; stroke-linecap: butt; stroke-linejoin: miter; stroke-miterlimit: 10; fill: rgb(0,0,0); fill-rule: nonzero; opacity: 1;" transform=" matrix(1 0 0 1 0 0) " stroke-linecap="round" />
	<path d="M 78.906 15.432 L 60.46 33.878 c 0.001 0.004 0.002 0.008 0.003 0.012 c 0.247 1.112 0.378 2.268 0.378 3.455 c 0 2.119 -0.425 4.135 -1.18 5.982 c -0.35 0.855 -0.764 1.678 -1.251 2.451 c -2.63 4.169 -4.351 8.833 -4.818 13.698 c -0.074 0.776 -0.727 1.367 -1.507 1.367 h -0.307 v 2.445 v 2.085 c 0 1.726 -1.399 3.125 -3.125 3.125 h -7.308 c -1.726 0 -3.125 -1.399 -3.125 -3.125 v -2.085 v -2.445 h -0.307 c -0.78 0 -1.432 -0.591 -1.507 -1.367 c -0.072 -0.755 -0.185 -1.502 -0.317 -2.246 c 0.05 0.292 0.098 0.585 0.141 0.878 l -20.8 20.8 C 23.341 85.809 33.678 90 45 90 c 24.853 0 45 -20.147 45 -45 C 90 33.678 85.809 23.341 78.906 15.432 z" style="stroke: none; stroke-width: 1; stroke-dasharray: none; stroke-linecap: butt; stroke-linejoin: miter; stroke-miterlimit: 10; fill: rgb(0,0,0); fill-rule: nonzero; opacity: 1;" transform=" matrix(1 0 0 1 0 0) " stroke-linecap="round" />
	<path d="M 35.218 53.613 c 0.232 0.744 0.438 1.496 0.61 2.255 C 35.656 55.108 35.448 54.357 35.218 53.613 z" style="stroke: none; stroke-width: 1; stroke-dasharray: none; stroke-linecap: butt; stroke-linejoin: miter; stroke-miterlimit: 10; fill: rgb(0,0,0); fill-rule: nonzero; opacity: 1;" transform=" matrix(1 0 0 1 0 0) " stroke-linecap="round" />
	<path d="M 34.39 51.272 c 0.293 0.736 0.559 1.482 0.797 2.236 C 34.951 52.754 34.683 52.009 34.39 51.272 z" style="stroke: none; stroke-width: 1; stroke-dasharray: none; stroke-linecap: butt; stroke-linejoin: miter; stroke-miterlimit: 10; fill: rgb(0,0,0); fill-rule: nonzero; opacity: 1;" transform=" matrix(1 0 0 1 0 0) " stroke-linecap="round" />
	<path d="M 59.358 30.643 c -0.45 -0.963 -0.998 -1.87 -1.625 -2.716 L 34.389 51.272 c 0.596 1.496 1.084 3.03 1.438 4.597 c 0.167 0.739 0.295 1.487 0.404 2.238 L 60.46 33.878 C 60.208 32.75 59.837 31.666 59.358 30.643 z" style="stroke: none; stroke-width: 1; stroke-dasharray: none; stroke-linecap: butt; stroke-linejoin: miter; stroke-miterlimit: 10; fill: rgb(0,0,0); fill-rule: nonzero; opacity: 1;" transform=" matrix(1 0 0 1 0 0) " stroke-linecap="round" />
</g>
</svg>