<svg width="33" height="45" viewBox="0 0 33 45" fill="none" xmlns="http://www.w3.org/2000/svg" class="" style="fill:#008060"><path d="M1.8 17.2a1.8 1.8 0 1 0 0-3.7 1.8 1.8 0 0 0 0 3.7ZM14 32.7l-9.5 6.6c-.4.3-1 0-1-.5V21.1a1.7 1.7 0 1 0-3.4 0v22.2c0 1.4 1.6 2.2 2.7 1.4L32.3 24c1-.7 1-2.1 0-2.8-.6-.4-1.4-.4-2 0L14 32.7Z"></path><path d="m22.4 20-12.3 8.6c-.4.3-1 0-1-.5v-4.4c0-.5.4-.9.9-.9h.6c.9 0 1.6-.7 1.6-1.5V21c0-1-.8-1.7-1.7-1.7H7.2c-.8 0-1.5.7-1.5 1.5v13.8c0 .5.5.8 1 .5l4.3-3 16.6-11.7c.9-.6.9-1.9 0-2.5l-10-7L2.5.2C1.5-.4 0 .3 0 1.5V2c0 .5.3 1 .7 1.2l21.6 15.3a1 1 0 0 1 0 1.5Z"></path></svg>